<svg xmlns="http://www.w3.org/2000/svg" width="1200" height="630" viewBox="0 0 1200 630" role="img" aria-labelledby="title desc">
  <title id="title">GharSet social preview image</title>
  <desc id="desc">A professional GharSet brand preview for smart home organizers.</desc>
  <defs>
    <style>
      .bg{fill:#F8F5EF}.surface{fill:#FFFFFF}.muted{fill:#F1EDE6}.border{stroke:#E4DDD3}.green{fill:#2F5D50}.greenStroke{stroke:#2F5D50}.greenDark{fill:#24483E}.accent{fill:#B86B3E}.text{fill:#1F2933}.sub{fill:#667085}.soft{fill:#EAF4EF}.font{font-family:Inter,ui-sans-serif,system-ui,-apple-system,Segoe UI,Roboto,Arial,sans-serif}
    </style>
  </defs>

  <rect width="1200" height="630" class="bg"/>

  <rect x="64" y="56" width="1072" height="518" rx="34" class="surface border" stroke-width="1.5"/>

  <!-- Logo mark -->
  <g transform="translate(112 108) scale(0.72)">
    <path d="M46 132v120q0 16 16 16h206q16 0 16-16V132L178 46q-11-8-22 0Z" fill="none" stroke="#2F5D50" stroke-width="14" stroke-linecap="round" stroke-linejoin="round"/>
    <path d="M232 72V26h38v84" fill="none" stroke="#2F5D50" stroke-width="14" stroke-linecap="round" stroke-linejoin="round"/>
    <path d="M65 167h200M163 90v176" fill="none" stroke="#2F5D50" stroke-width="12" stroke-linecap="round"/>
    <rect x="83" y="112" width="72" height="52" rx="8" class="accent"/>
    <rect x="108" y="126" width="22" height="10" rx="5" fill="#fff" opacity=".95"/>
    <rect x="184" y="135" width="48" height="32" rx="8" class="green"/>
    <path d="M205 135c-5-22-20-34-36-37 0 18 12 34 36 37Zm3 0c6-22 22-34 38-37 0 18-14 34-38 37Z" class="green"/>
    <rect x="76" y="200" width="92" height="22" rx="11" class="green"/>
    <rect x="76" y="233" width="92" height="22" rx="11" class="green"/>
    <rect x="186" y="204" width="84" height="52" rx="8" class="accent"/>
    <rect x="216" y="216" width="24" height="9" rx="4.5" fill="#fff" opacity=".95"/>
  </g>

  <text x="112" y="335" class="font text" font-size="78" font-weight="750" letter-spacing="-2.8">GharSet</text>
  <text x="114" y="388" class="font sub" font-size="29" font-weight="500">Smart organizers for every Indian home.</text>

  <g transform="translate(114 430)">
    <rect width="184" height="46" rx="13" class="green"/>
    <text x="92" y="30" text-anchor="middle" class="font" font-size="17" font-weight="700" fill="#fff">COD catalog</text>
    <rect x="198" width="224" height="46" rx="13" class="soft"/>
    <text x="310" y="30" text-anchor="middle" class="font greenDark" font-size="17" font-weight="700">WhatsApp ordering</text>
  </g>

  <!-- Right product system illustration -->
  <g transform="translate(710 116)">
    <rect x="0" y="0" width="340" height="360" rx="28" class="muted border" stroke-width="1.5"/>
    <rect x="36" y="44" width="268" height="72" rx="18" class="surface border" stroke-width="1.5"/>
    <rect x="60" y="67" width="88" height="12" rx="6" class="green" opacity=".9"/>
    <rect x="60" y="91" width="160" height="9" rx="4.5" class="sub" opacity=".35"/>
    <rect x="236" y="64" width="44" height="34" rx="9" class="accent"/>

    <rect x="36" y="144" width="126" height="146" rx="20" class="surface border" stroke-width="1.5"/>
    <rect x="66" y="179" width="66" height="16" rx="8" class="green"/>
    <rect x="66" y="211" width="66" height="16" rx="8" class="green" opacity=".75"/>
    <rect x="66" y="243" width="66" height="16" rx="8" class="green" opacity=".55"/>

    <rect x="186" y="144" width="118" height="66" rx="18" class="surface border" stroke-width="1.5"/>
    <rect x="213" y="169" width="64" height="16" rx="8" class="accent"/>

    <rect x="186" y="232" width="118" height="58" rx="18" class="green"/>
    <text x="245" y="268" text-anchor="middle" class="font" font-size="17" font-weight="700" fill="#fff">Under ₹499</text>

    <path d="M42 322h256" stroke="#E4DDD3" stroke-width="2" stroke-linecap="round"/>
    <circle cx="64" cy="322" r="7" class="green"/>
    <circle cx="142" cy="322" r="7" class="accent"/>
    <circle cx="220" cy="322" r="7" class="green" opacity=".75"/>
    <circle cx="298" cy="322" r="7" class="accent" opacity=".75"/>
  </g>
</svg>
